<svg width="50" height="50" viewBox="0 0 50 50" fill="none" xmlns="http://www.w3.org/2000/svg">
<g clip-path="url(#clip0_270_4580)">
<path d="M41.6668 15H30.0002C27.348 15 24.8045 16.0536 22.9291 17.9289C21.0537 19.8043 20.0002 22.3478 20.0002 25C20.0002 27.6522 21.0537 30.1957 22.9291 32.0711C24.8045 33.9464 27.348 35 30.0002 35H41.6668V38.3333C41.6668 38.7754 41.4912 39.1993 41.1787 39.5118C40.8661 39.8244 40.4422 40 40.0002 40H10.0002C9.55814 40 9.13421 39.8244 8.82165 39.5118C8.50909 39.1993 8.3335 38.7754 8.3335 38.3333V11.6667C8.3335 11.2246 8.50909 10.8007 8.82165 10.4882C9.13421 10.1756 9.55814 10 10.0002 10H40.0002C40.4422 10 40.8661 10.1756 41.1787 10.4882C41.4912 10.8007 41.6668 11.2246 41.6668 11.6667V15ZM30.0002 18.3333H43.3335V31.6667H30.0002C28.2321 31.6667 26.5364 30.9643 25.2861 29.714C24.0359 28.4638 23.3335 26.7681 23.3335 25C23.3335 23.2319 24.0359 21.5362 25.2861 20.286C26.5364 19.0357 28.2321 18.3333 30.0002 18.3333V18.3333ZM30.0002 23.3333V26.6667H35.0002V23.3333H30.0002Z" fill="#A6FF00"/>
</g>
<defs>
<clipPath id="clip0_270_4580">
<rect width="40" height="40" fill="white" transform="translate(5 5)"/>
</clipPath>
</defs>
</svg>
