<svg xmlns="http://www.w3.org/2000/svg" xmlns:xlink="http://www.w3.org/1999/xlink" width="155" zoomAndPan="magnify" viewBox="0 0 116.25 30.000001" height="40" preserveAspectRatio="xMidYMid meet" version="1.0"><defs><g/></defs><g fill="#ffffff" fill-opacity="1"><g transform="translate(10.002157, 26.90586)"><g><path d="M 14.65625 -0.609375 C 13.945312 -0.222656 13.113281 -0.0195312 12.15625 0 C 11.195312 0.0195312 10.222656 -0.046875 9.234375 -0.203125 C 8.253906 -0.367188 7.382812 -0.515625 6.625 -0.640625 C 4.988281 -0.921875 3.644531 -1.460938 2.59375 -2.265625 C 1.539062 -3.078125 0.925781 -4.351562 0.75 -6.09375 C 0.601562 -7.65625 0.539062 -9.269531 0.5625 -10.9375 C 0.59375 -12.601562 0.617188 -14.21875 0.640625 -15.78125 C 0.640625 -16.664062 0.648438 -17.644531 0.671875 -18.71875 C 0.703125 -19.789062 0.835938 -20.832031 1.078125 -21.84375 C 1.316406 -22.851562 1.738281 -23.722656 2.34375 -24.453125 C 3 -25.234375 3.710938 -25.660156 4.484375 -25.734375 C 5.253906 -25.816406 5.960938 -25.625 6.609375 -25.15625 C 7.253906 -24.6875 7.710938 -24 7.984375 -23.09375 C 8.367188 -22.007812 8.582031 -20.84375 8.625 -19.59375 C 8.675781 -18.34375 8.664062 -17.09375 8.59375 -15.84375 C 8.519531 -14.59375 8.457031 -13.398438 8.40625 -12.265625 C 8.375 -11.859375 8.328125 -11.421875 8.265625 -10.953125 C 8.203125 -10.492188 8.195312 -10.046875 8.25 -9.609375 C 8.320312 -9.085938 8.367188 -8.757812 8.390625 -8.625 C 8.421875 -8.5 8.519531 -8.457031 8.6875 -8.5 C 8.851562 -8.539062 9.160156 -8.507812 9.609375 -8.40625 C 10.242188 -8.300781 10.859375 -8.234375 11.453125 -8.203125 C 12.046875 -8.179688 12.625 -8.125 13.1875 -8.03125 C 13.757812 -7.945312 14.320312 -7.71875 14.875 -7.34375 C 15.65625 -6.84375 16.164062 -6.144531 16.40625 -5.25 C 16.644531 -4.351562 16.617188 -3.46875 16.328125 -2.59375 C 16.046875 -1.71875 15.488281 -1.054688 14.65625 -0.609375 Z M 14.65625 -0.609375 "/></g></g></g><g fill="#ffffff" fill-opacity="1"><g transform="translate(23.931982, 26.90586)"><g><path d="M 2.921875 -0.234375 C 1.929688 -0.503906 1.269531 -0.972656 0.9375 -1.640625 C 0.613281 -2.316406 0.488281 -3.085938 0.5625 -3.953125 C 0.644531 -4.828125 0.804688 -5.695312 1.046875 -6.5625 C 1.285156 -7.4375 1.492188 -8.226562 1.671875 -8.9375 C 2.117188 -10.800781 2.617188 -12.660156 3.171875 -14.515625 C 3.734375 -16.367188 4.316406 -18.21875 4.921875 -20.0625 C 5.421875 -21.625 6.148438 -22.890625 7.109375 -23.859375 C 8.078125 -24.835938 9.441406 -25.351562 11.203125 -25.40625 C 12.191406 -25.425781 13 -25.191406 13.625 -24.703125 C 14.257812 -24.210938 14.769531 -23.566406 15.15625 -22.765625 C 15.550781 -21.972656 15.882812 -21.132812 16.15625 -20.25 C 16.4375 -19.375 16.707031 -18.554688 16.96875 -17.796875 L 21.390625 -5.34375 C 21.691406 -4.507812 21.828125 -3.765625 21.796875 -3.109375 C 21.773438 -2.453125 21.398438 -1.820312 20.671875 -1.21875 C 19.941406 -0.632812 19.234375 -0.363281 18.546875 -0.40625 C 17.867188 -0.457031 17.265625 -0.878906 16.734375 -1.671875 C 16.484375 -2.046875 16.273438 -2.519531 16.109375 -3.09375 C 15.941406 -3.675781 15.765625 -4.242188 15.578125 -4.796875 C 15.390625 -5.359375 15.117188 -5.78125 14.765625 -6.0625 C 14.710938 -6.113281 14.398438 -6.160156 13.828125 -6.203125 C 13.265625 -6.253906 12.609375 -6.296875 11.859375 -6.328125 C 11.117188 -6.367188 10.4375 -6.382812 9.8125 -6.375 C 9.195312 -6.363281 8.816406 -6.296875 8.671875 -6.171875 C 8.316406 -5.867188 8.066406 -5.390625 7.921875 -4.734375 C 7.785156 -4.078125 7.660156 -3.398438 7.546875 -2.703125 C 7.429688 -2.015625 7.210938 -1.46875 6.890625 -1.0625 C 6.429688 -0.507812 5.820312 -0.179688 5.0625 -0.078125 C 4.3125 0.0234375 3.597656 -0.0234375 2.921875 -0.234375 Z M 10.40625 -11.546875 C 10.757812 -11.597656 11.109375 -11.660156 11.453125 -11.734375 C 11.796875 -11.804688 12.128906 -11.867188 12.453125 -11.921875 C 12.273438 -12.429688 12.101562 -12.9375 11.9375 -13.4375 C 11.78125 -13.945312 11.625 -14.453125 11.46875 -14.953125 C 11.289062 -14.398438 11.113281 -13.835938 10.9375 -13.265625 C 10.757812 -12.703125 10.582031 -12.128906 10.40625 -11.546875 Z M 10.40625 -11.546875 "/></g></g></g><g fill="#ffffff" fill-opacity="1"><g transform="translate(43.161558, 26.90586)"><g><path d="M 1.78125 -0.71875 C 1.351562 -1.195312 1.050781 -1.8125 0.875 -2.5625 C 0.695312 -3.320312 0.597656 -4.140625 0.578125 -5.015625 C 0.566406 -5.890625 0.59375 -6.734375 0.65625 -7.546875 C 0.71875 -8.367188 0.765625 -9.070312 0.796875 -9.65625 C 0.847656 -10.332031 0.875 -11.15625 0.875 -12.125 C 0.875 -13.101562 0.90625 -14.132812 0.96875 -15.21875 C 1.03125 -16.300781 1.160156 -17.359375 1.359375 -18.390625 C 1.566406 -19.429688 1.878906 -20.34375 2.296875 -21.125 C 2.710938 -21.90625 3.269531 -22.472656 3.96875 -22.828125 C 4.726562 -23.203125 5.476562 -23.300781 6.21875 -23.125 C 6.96875 -22.945312 7.65625 -22.613281 8.28125 -22.125 C 8.914062 -21.632812 9.425781 -21.070312 9.8125 -20.4375 C 10.539062 -19.28125 11.160156 -18.082031 11.671875 -16.84375 C 12.191406 -15.613281 12.832031 -14.40625 13.59375 -13.21875 C 13.5625 -13.820312 13.5 -14.507812 13.40625 -15.28125 C 13.320312 -16.050781 13.28125 -16.832031 13.28125 -17.625 C 13.28125 -18.414062 13.375 -19.171875 13.5625 -19.890625 C 13.757812 -20.609375 14.097656 -21.222656 14.578125 -21.734375 C 15.203125 -22.390625 15.867188 -22.722656 16.578125 -22.734375 C 17.285156 -22.742188 17.914062 -22.515625 18.46875 -22.046875 C 19.03125 -21.585938 19.359375 -20.925781 19.453125 -20.0625 C 19.628906 -18.90625 19.785156 -17.582031 19.921875 -16.09375 C 20.066406 -14.601562 20.132812 -13.070312 20.125 -11.5 C 20.113281 -9.9375 19.992188 -8.421875 19.765625 -6.953125 C 19.535156 -5.492188 19.15625 -4.195312 18.625 -3.0625 C 18.039062 -1.832031 17.398438 -1.109375 16.703125 -0.890625 C 16.015625 -0.671875 15.289062 -0.800781 14.53125 -1.28125 C 13.78125 -1.757812 13.035156 -2.453125 12.296875 -3.359375 C 11.566406 -4.273438 10.878906 -5.25 10.234375 -6.28125 C 9.597656 -7.320312 9.03125 -8.28125 8.53125 -9.15625 C 8.039062 -10.039062 7.671875 -10.695312 7.421875 -11.125 C 7.367188 -10.875 7.269531 -10.359375 7.125 -9.578125 C 6.988281 -8.796875 6.804688 -7.898438 6.578125 -6.890625 C 6.359375 -5.878906 6.097656 -4.878906 5.796875 -3.890625 C 5.492188 -2.910156 5.144531 -2.066406 4.75 -1.359375 C 4.363281 -0.648438 3.921875 -0.207031 3.421875 -0.03125 C 2.929688 0.144531 2.382812 -0.0820312 1.78125 -0.71875 Z M 1.78125 -0.71875 "/></g></g></g><g fill="#ffffff" fill-opacity="1"><g transform="translate(60.687648, 26.90586)"><g><path d="M 1.09375 -3.21875 C 0.820312 -5.082031 0.726562 -6.992188 0.8125 -8.953125 C 0.90625 -10.910156 0.910156 -12.820312 0.828125 -14.6875 C 0.804688 -15.675781 0.742188 -16.769531 0.640625 -17.96875 C 0.535156 -19.164062 0.546875 -20.34375 0.671875 -21.5 C 0.804688 -22.664062 1.175781 -23.664062 1.78125 -24.5 C 2.382812 -25.300781 3.21875 -25.882812 4.28125 -26.25 C 5.34375 -26.613281 6.457031 -26.832031 7.625 -26.90625 C 8.800781 -26.988281 9.84375 -26.992188 10.75 -26.921875 C 11.8125 -26.867188 12.867188 -26.695312 13.921875 -26.40625 C 14.984375 -26.113281 15.960938 -25.671875 16.859375 -25.078125 C 17.753906 -24.484375 18.484375 -23.695312 19.046875 -22.71875 C 19.898438 -21.28125 20.414062 -19.734375 20.59375 -18.078125 C 20.769531 -16.421875 20.679688 -14.757812 20.328125 -13.09375 C 19.972656 -11.425781 19.398438 -9.84375 18.609375 -8.34375 C 17.816406 -6.84375 16.890625 -5.535156 15.828125 -4.421875 C 15.367188 -3.941406 14.71875 -3.4375 13.875 -2.90625 C 13.03125 -2.382812 12.082031 -1.890625 11.03125 -1.421875 C 9.988281 -0.953125 8.921875 -0.582031 7.828125 -0.3125 C 6.742188 -0.0507812 5.722656 0.046875 4.765625 -0.015625 C 3.804688 -0.078125 3 -0.351562 2.34375 -0.84375 C 1.6875 -1.34375 1.269531 -2.132812 1.09375 -3.21875 Z M 8.78125 -8.625 C 9.3125 -8.5 9.847656 -8.625 10.390625 -9 C 10.929688 -9.382812 11.421875 -9.890625 11.859375 -10.515625 C 12.304688 -11.148438 12.6875 -11.789062 13 -12.4375 C 13.320312 -13.082031 13.519531 -13.59375 13.59375 -13.96875 C 13.875 -15.175781 13.640625 -16.222656 12.890625 -17.109375 C 12.148438 -17.992188 11.210938 -18.5625 10.078125 -18.8125 C 9.316406 -19.019531 8.765625 -19.023438 8.421875 -18.828125 C 8.078125 -18.640625 7.859375 -18.332031 7.765625 -17.90625 C 7.679688 -17.476562 7.644531 -16.984375 7.65625 -16.421875 C 7.675781 -15.867188 7.6875 -15.304688 7.6875 -14.734375 C 7.6875 -14.378906 7.65625 -13.882812 7.59375 -13.25 C 7.53125 -12.613281 7.503906 -11.960938 7.515625 -11.296875 C 7.523438 -10.628906 7.617188 -10.039062 7.796875 -9.53125 C 7.972656 -9.03125 8.300781 -8.726562 8.78125 -8.625 Z M 8.78125 -8.625 "/></g></g></g><g fill="#ffffff" fill-opacity="1"><g transform="translate(78.781554, 26.90586)"><g/></g></g><g fill="#ffffff" fill-opacity="1"><g transform="translate(85.064604, 26.90586)"><g><path d="M 0.953125 -17.984375 C 0.640625 -18.535156 0.539062 -19.078125 0.65625 -19.609375 C 0.769531 -20.140625 1.003906 -20.566406 1.359375 -20.890625 C 1.710938 -21.222656 2.125 -21.363281 2.59375 -21.3125 C 3.0625 -21.257812 3.5 -20.929688 3.90625 -20.328125 C 4.332031 -19.722656 4.488281 -19.140625 4.375 -18.578125 C 4.257812 -18.023438 4 -17.582031 3.59375 -17.25 C 3.1875 -16.925781 2.726562 -16.800781 2.21875 -16.875 C 1.71875 -16.957031 1.296875 -17.328125 0.953125 -17.984375 Z M 3.703125 -0.421875 C 3.128906 -0.015625 2.648438 0.113281 2.265625 -0.03125 C 1.890625 -0.1875 1.59375 -0.503906 1.375 -0.984375 C 1.164062 -1.460938 1.003906 -2.003906 0.890625 -2.609375 C 0.773438 -3.210938 0.703125 -3.785156 0.671875 -4.328125 C 0.648438 -4.878906 0.628906 -5.28125 0.609375 -5.53125 C 0.578125 -6.382812 0.582031 -7.242188 0.625 -8.109375 C 0.664062 -8.984375 0.707031 -9.851562 0.75 -10.71875 C 0.78125 -11.164062 0.796875 -11.671875 0.796875 -12.234375 C 0.796875 -12.804688 0.851562 -13.351562 0.96875 -13.875 C 1.082031 -14.394531 1.316406 -14.816406 1.671875 -15.140625 C 2.242188 -15.722656 2.734375 -15.984375 3.140625 -15.921875 C 3.546875 -15.859375 3.875 -15.597656 4.125 -15.140625 C 4.375 -14.691406 4.566406 -14.15625 4.703125 -13.53125 C 4.847656 -12.914062 4.953125 -12.3125 5.015625 -11.71875 C 5.078125 -11.125 5.125 -10.675781 5.15625 -10.375 C 5.28125 -9.34375 5.300781 -8.3125 5.21875 -7.28125 C 5.144531 -6.257812 5.035156 -5.234375 4.890625 -4.203125 C 4.835938 -3.847656 4.785156 -3.414062 4.734375 -2.90625 C 4.679688 -2.40625 4.582031 -1.925781 4.4375 -1.46875 C 4.300781 -1.019531 4.054688 -0.671875 3.703125 -0.421875 Z M 3.703125 -0.421875 "/></g></g></g><g fill="#ffffff" fill-opacity="1"><g transform="translate(87.71355, 26.90586)"><g><path d="M 9.390625 0 C 8.660156 0 8.085938 -0.175781 7.671875 -0.53125 C 7.253906 -0.882812 6.945312 -1.34375 6.75 -1.90625 C 6.5625 -2.476562 6.453125 -3.078125 6.421875 -3.703125 C 6.398438 -4.335938 6.40625 -4.921875 6.4375 -5.453125 C 6.507812 -7.566406 6.617188 -9.671875 6.765625 -11.765625 C 6.921875 -13.867188 6.960938 -15.992188 6.890625 -18.140625 C 6.210938 -18.109375 5.472656 -18.085938 4.671875 -18.078125 C 3.878906 -18.066406 3.132812 -18.191406 2.4375 -18.453125 C 1.75 -18.722656 1.226562 -19.222656 0.875 -19.953125 C 0.519531 -20.679688 0.460938 -21.4375 0.703125 -22.21875 C 0.941406 -23 1.441406 -23.554688 2.203125 -23.890625 C 2.773438 -24.171875 3.492188 -24.273438 4.359375 -24.203125 C 5.234375 -24.140625 6.117188 -24.039062 7.015625 -23.90625 C 7.910156 -23.769531 8.675781 -23.675781 9.3125 -23.625 C 10.394531 -23.570312 11.539062 -23.554688 12.75 -23.578125 C 13.96875 -23.609375 15.082031 -23.382812 16.09375 -22.90625 C 16.539062 -22.707031 16.921875 -22.390625 17.234375 -21.953125 C 17.554688 -21.523438 17.742188 -21.054688 17.796875 -20.546875 C 17.847656 -20.046875 17.695312 -19.570312 17.34375 -19.125 C 17.007812 -18.6875 16.507812 -18.398438 15.84375 -18.265625 C 15.175781 -18.128906 14.484375 -18.066406 13.765625 -18.078125 C 13.046875 -18.085938 12.429688 -18.09375 11.921875 -18.09375 C 12.003906 -17.59375 12.128906 -16.804688 12.296875 -15.734375 C 12.472656 -14.660156 12.644531 -13.445312 12.8125 -12.09375 C 12.976562 -10.75 13.070312 -9.375 13.09375 -7.96875 C 13.125 -6.570312 13.035156 -5.269531 12.828125 -4.0625 C 12.628906 -2.863281 12.257812 -1.890625 11.71875 -1.140625 C 11.175781 -0.398438 10.398438 -0.0195312 9.390625 0 Z M 9.390625 0 "/></g></g></g></svg>